<svg width="16" height="16" version="1.1" viewBox="0 0 4.2333 4.2333" xmlns="http://www.w3.org/2000/svg">
 <g stroke-width="1.2506">
  <path d="m0.58151 0h2.1204c0.20142 0 0.36356 0.16215 0.36356 0.36356v3.0696c0 0.20141-0.16214 0.36356-0.36356 0.36356h-2.1204c-0.20141 0-0.36356-0.16215-0.36356-0.36356v-3.0696c0-0.20141 0.16215-0.36356 0.36356-0.36356z"/>
  <path d="m1.512 0.43657h2.1205c0.20141 0 0.36356 0.16215 0.36356 0.36356v3.0696c0 0.20142-0.16215 0.36356-0.36356 0.36356h-2.1205c-0.20141 0-0.36356-0.16214-0.36356-0.36356v-3.0696c0-0.20141 0.16215-0.36356 0.36356-0.36356z"/>
  <path d="m1.4478 0.36019h2.0961c0.20815 0 0.37572 0.16757 0.37572 0.37572v3.0453c0 0.20815-0.16757 0.37572-0.37572 0.37572h-2.0961c-0.20815 0-0.37572-0.16757-0.37572-0.37572v-3.0453c0-0.20815 0.16757-0.37572 0.37572-0.37572z" fill="#fff"/>
 </g>
</svg>
